<?xml version="1.0" encoding="UTF-8" standalone="no"?>
<!-- Created with Inkscape (http://www.inkscape.org/) -->

<svg
   width="70mm"
   height="40mm"
   viewBox="0 0 70 40.000001"
   version="1.1"
   id="svg31368"
   inkscape:version="1.1.2 (0a00cf5339, 2022-02-04)"
   sodipodi:docname="PELDILOC.svg"
   xmlns:inkscape="http://www.inkscape.org/namespaces/inkscape"
   xmlns:sodipodi="http://sodipodi.sourceforge.net/DTD/sodipodi-0.dtd"
   xmlns="http://www.w3.org/2000/svg"
   xmlns:svg="http://www.w3.org/2000/svg">
  <sodipodi:namedview
     id="namedview31370"
     pagecolor="#505050"
     bordercolor="#eeeeee"
     borderopacity="1"
     inkscape:pageshadow="0"
     inkscape:pageopacity="0"
     inkscape:pagecheckerboard="0"
     inkscape:document-units="mm"
     showgrid="false"
     inkscape:zoom="2.3347869"
     inkscape:cx="95.940231"
     inkscape:cy="1.4990661"
     inkscape:window-width="1850"
     inkscape:window-height="1016"
     inkscape:window-x="0"
     inkscape:window-y="0"
     inkscape:window-maximized="1"
     inkscape:current-layer="layer1" />
  <defs
     id="defs31365" />
  <g
     inkscape:label="Layer 1"
     inkscape:groupmode="layer"
     id="layer1">
    <rect
       style="fill:#ffffff;stroke:none;stroke-width:0.282204;stroke-linecap:round;paint-order:stroke fill markers"
       id="rect31609"
       width="70"
       height="40"
       x="-1.5976803e-15"
       y="3.3150566e-15" />
    <g
       style="display:inline"
       id="g6963"
       transform="matrix(0.10121559,0,0,0.10121559,37.43945,16.405553)">
      <path
         style="fill:#52d3be;stroke-width:0.264583"
         d="m -241.81832,-60.981137 c -5.8704,-0.711173 -11.32727,-2.243254 -19.26289,-5.408279 -5.58986,-2.22945 -12.81114,-5.32349 -12.95034,-5.548722 -0.0712,-0.115226 1.64032,-1.928842 3.80342,-4.030258 18.94818,-18.407855 41.24312,-31.236224 66.78945,-38.430244 14.86641,-4.18647 32.68871,-6.24221 47.47879,-5.47651 10.15708,0.52585 15.87193,1.19882 24.14004,2.84269 23.33742,4.63996 45.953731,14.88542 64.198951,29.082898 4.093501,3.185345 11.335518,9.319257 12.780566,10.825006 l 0.911781,0.9501 h -1.649809 c -2.469119,0 -6.401197,0.485159 -9.963362,1.229323 -4.449604,0.929561 -9.833574,2.783454 -17.212766,5.926974 -12.122275,5.164063 -18.938641,7.326132 -25.775091,8.175553 -3.336,0.414493 -10.63771,0.343217 -14.08418,-0.137483 -6.27656,-0.875427 -11.43113,-2.500244 -22.53561,-7.103647 -15.36481,-6.369531 -21.71475,-8.081226 -30.00643,-8.08855 -8.03879,-0.0071 -15.16026,1.849652 -28.28253,7.373993 -12.58484,5.298088 -18.29632,7.10058 -25.21209,7.956705 -3.0087,0.37246 -9.51026,0.303557 -13.1679,-0.139549 z"
         id="path6975"
         inkscape:connector-curvature="0"
         sodipodi:nodetypes="ssssssssscssssssssss" />
      <path
         style="fill:#dfac02;stroke-width:0.264583"
         d="m -170.05214,190.52503 c -22.89352,-1.40208 -42.8937,-6.76119 -62.70626,-16.80228 -7.71102,-3.908 -15.39263,-8.75639 -23.41562,-14.77923 -5.68253,-4.26588 -13.35412,-11.01836 -12.74773,-11.22048 0.14714,-0.049 2.31117,0.7606 4.80895,1.7992 11.50767,4.78499 19.97929,6.50041 28.77621,5.82689 7.66927,-0.58716 11.89602,-1.85108 26.39069,-7.89146 4.36563,-1.81931 9.66391,-3.87544 11.77396,-4.56917 10.92358,-3.59148 19.88124,-4.08535 30.63835,-1.68921 4.68888,1.04447 9.21695,2.65136 18.06936,6.41236 15.40581,6.54527 20.11358,7.78082 29.74125,7.80556 8.84646,0.0228 14.03242,-1.38243 29.919234,-8.10671 9.887065,-4.18483 14.876326,-5.78903 21.674522,-6.96904 3.740759,-0.64931 11.983615,-0.64236 15.610418,0.0132 1.455208,0.26302 2.760689,0.58798 2.90105,0.72218 0.43688,0.41759 -8.332549,8.94834 -14.452627,14.05927 -8.349668,6.97285 -19.526923,14.34314 -28.757862,18.96295 -15.969095,7.99208 -34.424775,13.52447 -51.633275,15.47786 -8.59782,0.97599 -19.68239,1.37123 -26.59062,0.94813 z"
         id="path6973"
         inkscape:connector-curvature="0"
         sodipodi:nodetypes="ssssssssssssssssssss" />
      <path
         style="fill:#0097a0;stroke-width:0.264583"
         d="m -243.40214,136.53717 c -6.93488,-0.54713 -12.54124,-2.21953 -26.0139,-7.76009 -7.73143,-3.1795 -12.91843,-5.00213 -17.84508,-6.27045 -2.39212,-0.61584 -3.59991,-1.05967 -3.96984,-1.45884 -1.68106,-1.81389 -6.85815,-10.80547 -10.33556,-17.95085 -5.08104,-10.440478 -8.56035,-20.059156 -11.07366,-30.613538 -1.6619,-6.979007 -2.30921,-10.509406 -2.02447,-11.041446 0.30505,-0.569984 4.30899,-1.738979 9.62104,-2.80897 9.89929,-1.993985 17.32619,-1.400778 28.76125,2.297242 1.81901,0.588256 7.29589,2.677845 12.17084,4.64353 9.16811,3.696787 13.52169,5.276823 16.93333,6.145585 7.38956,1.88173 16.78084,1.77509 25.13542,-0.285422 4.22281,-1.041482 8.14282,-2.464429 16.65848,-6.046964 11.70451,-4.924084 16.35005,-6.388971 23.11862,-7.29003 4.2344,-0.5637 12.76373,-0.436624 16.44686,0.245038 7.05534,1.30578 9.42971,2.120236 26.32604,9.03033 12.94176,5.292796 20.37919,6.665534 30.03183,5.543026 6.91276,-0.803887 11.338291,-2.189041 23.017132,-7.204178 14.559519,-6.252165 21.962455,-8.136051 31.882293,-8.113363 9.143233,0.0209 13.346087,1.114409 30.452988,7.923201 4.889209,1.945971 9.592178,3.796731 10.451042,4.1128 1.860047,0.684503 2.487639,1.179806 2.487639,1.963306 0,0.796208 -2.846441,10.497854 -4.49543,15.32192 -3.404394,9.959459 -8.54083,20.697953 -14.501204,30.316943 -2.423372,3.91086 -5.582233,8.39955 -6.032765,8.57242 -0.20918,0.0803 -1.811523,-0.38658 -3.560789,-1.03744 -7.221194,-2.68687 -12.398111,-3.66949 -19.299397,-3.66316 -8.574115,0.008 -14.904314,1.61776 -28.178127,7.16626 -15.999162,6.68771 -22.513082,8.37572 -32.279172,8.36472 -9.58333,-0.0108 -16.07856,-1.69474 -30.95625,-8.02571 -13.72389,-5.84001 -18.98316,-7.31882 -26.9875,-7.58838 -3.47001,-0.11686 -5.19327,-0.0499 -7.54062,0.2928 -6.5898,0.96219 -12.74684,2.86897 -21.16667,6.55514 -2.98318,1.30604 -6.31693,2.73545 -7.40833,3.17651 -10.20147,4.12252 -21.285,6.16193 -29.82604,5.48806 z"
         id="path6971"
         inkscape:connector-curvature="0"
         sodipodi:nodetypes="sssssssssssssssssssssssssssssssssss" />
      <path
         style="fill:#003566;stroke-width:0.264583"
         d="m 13.352876,190.88299 c -0.09959,-0.0996 -0.181054,-44.57364 -0.181054,-98.831255 V -6.5984503 l 6.416146,0.07085 6.416146,0.07085 V 92.23283 190.92241 l -6.235092,0.0708 c -3.429291,0.0389 -6.316557,-0.0106 -6.416146,-0.11025 z M 39.100989,92.23283 V -6.5890417 h 6.34963 6.34963 l 0.06652,92.0088507 0.06652,92.008851 26.52448,0.0674 26.524481,0.0674 v 6.74561 6.7456 H 72.041616 39.100989 Z m 96.176051,98.42058 c -8.21537,-1.52607 -14.42467,-7.32139 -16.60467,-15.4976 l -0.59325,-2.22507 V 92.23283 11.534916 l 0.59692,-2.2395365 c 2.01518,-7.5605928 7.28179,-13.0513371 14.53478,-15.1533219 2.05127,-0.5944764 2.18967,-0.5988077 19.13184,-0.5988077 18.9873,0 18.41455,-0.047138 22.42188,1.8453893 2.47242,1.167638 3.9964,2.2270984 5.80475,4.03545399 3.00873,3.00873311 5.22102,7.40916651 5.88912,11.71394781 0.23053,1.48544 0.28784,22.174638 0.22788,82.285413 l -0.0801,80.301036 -0.602,1.93903 c -2.52696,8.13922 -8.57181,13.58762 -16.63512,14.99375 -3.07936,0.537 -31.19758,0.53382 -34.09204,-0.004 z m 33.55342,-13.51368 c 1.68873,-0.57541 3.66808,-2.41694 4.4445,-4.13506 l 0.63124,-1.39684 0.0742,-78.845834 c 0.0533,-56.617936 -0.008,-79.181486 -0.21648,-80.036455 -0.40198,-1.646417 -1.70254,-3.5837918 -3.00135,-4.4708868 -2.20303,-1.5047145 -1.92371,-1.4822381 -18.4199,-1.4822381 -14.28856,0 -15.29241,0.030424 -16.51095,0.500425 -2.60266,1.0038741 -4.41669,3.3104819 -4.91252,6.2464499 -0.20751,1.228762 -0.26898,24.005004 -0.21527,79.771872 l 0.0752,78.052077 0.60325,1.30834 c 0.81423,1.76591 1.70635,2.88809 2.86567,3.60458 2.08688,1.28976 1.96218,1.28087 18.11364,1.29318 13.25796,0.0101 15.3928,-0.043 16.46878,-0.40961 z m 47.80595,13.40176 c -4.37964,-0.94949 -7.24662,-2.45555 -10.27618,-5.39827 -3.01966,-2.93312 -4.90085,-6.24488 -5.87345,-10.34002 -0.51737,-2.17839 -0.52327,-3.26088 -0.45548,-83.399122 L 200.1,10.211999 200.72172,8.359916 c 2.43779,-7.262037 7.66128,-12.3857089 14.59183,-14.3130344 1.55318,-0.4319243 3.27739,-0.4871799 17.79796,-0.5703543 13.64822,-0.078176 16.43872,-0.029877 18.46374,0.3195849 4.33237,0.7476437 7.66186,2.497656 10.83413,5.69454222 3.28057,3.30602688 5.40647,7.69527898 6.06703,12.52642758 0.18129,1.325975 0.28297,9.668573 0.28297,23.217187 v 21.14752 h -6.47639 -6.47642 l -0.072,-22.026561 -0.072,-22.026562 -0.71062,-1.346735 C 254.12091,9.4071845 252.73474,8.1110648 251.04569,7.3295386 249.86448,6.7829994 249.5451,6.7724161 234.23121,6.7724161 h -15.61042 l -1.50326,0.7382113 c -1.6298,0.8003513 -2.78442,1.9488467 -3.72065,3.7009146 l -0.59692,1.117124 -0.0679,79.426609 c -0.0674,78.906905 -0.0644,79.435885 0.46217,80.843285 0.59585,1.5925 2.21504,3.39008 3.83903,4.26193 1.04944,0.56341 1.19396,0.56817 17.19792,0.56817 h 16.13958 l 1.13541,-0.60627 c 1.65057,-0.88135 3.12936,-2.53306 3.74787,-4.18621 0.52785,-1.41081 0.54068,-1.94368 0.54068,-22.47423 v -21.02917 l 6.41614,0.0709 6.41615,0.0708 0.0791,20.10834 c 0.0827,21.02818 -0.0111,23.41533 -1.0541,26.84655 -2.07722,6.83313 -7.58021,12.13131 -14.63538,14.09063 -2.06708,0.57406 -2.49171,0.58925 -18.12396,0.64844 -14.69988,0.0556 -16.19099,0.0209 -18.25625,-0.42696 z M -15.138596,50.061727 c -3.274219,-1.131199 -8.830496,-3.269136 -12.347311,-4.750972 -12.062567,-5.082675 -16.434251,-6.293482 -24.637895,-6.82386 -1.920188,-0.124143 -2.89359,-0.304179 -3.244507,-0.600083 -0.655187,-0.552485 -2.986167,-4.714653 -5.011102,-8.947835 -0.886672,-1.853568 -1.866133,-3.640492 -2.176569,-3.970946 -0.6409,-0.682215 -1.617636,-0.759161 -2.588868,-0.203949 -1.791044,1.023848 -3.240062,-0.164296 -4.35618,-3.571875 -1.41134,-4.308961 -2.383843,-5.111739 -6.849377,-5.654103 -1.530657,-0.185907 -2.979384,-0.500986 -3.21939,-0.700175 -0.750231,-0.622636 -1.803048,-2.321943 -5.160963,-8.3300962 -5.995082,-10.7267107 -10.804477,-18.4368808 -13.076455,-20.9634848 -1.713515,-1.90555 -2.851167,-2.21547 -4.737517,-1.290592 -1.63288,0.8006 -3.48874,2.634866 -5.91877,5.8499107 -1.31129,1.7348914 -1.97933,2.4023293 -2.46115,2.4589131 -0.92218,0.1082966 -2.5564,-1.1182429 -6.66795,-5.0045488 -4.04927,-3.827428 -6.393,-5.757058 -8.39001,-6.907617 -2.83805,-1.635125 -5.07613,-0.966078 -8.61537,2.575462 -2.17829,2.179709 -2.42827,2.524181 -7.6724,10.5725619 -5.514,8.4625521 -9.40013,13.2698644 -14.66856,18.1456511 -3.04691,2.819823 -3.5203,3.140093 -4.66088,3.153325 -1.65166,0.01916 -3.37431,-1.473846 -7.35191,-6.3718412 -3.16465,-3.896934 -4.20834,-4.464997 -8.21129,-4.4692832 -3.57737,-0.00384 -4.40965,-0.4693338 -7.9689,-4.45708604 -4.69836,-5.26401226 -7.71561,-7.35976346 -10.24581,-7.11664316 -1.94516,0.1869043 -3.14526,1.5083657 -5.51822,6.0762592 -1.05682,2.03435471 -2.0707,3.7560857 -2.25306,3.8260653 -0.61265,0.2350956 -1.37053,-0.4210631 -3.18043,-2.7535821 -3.10263,-3.9985075 -3.83568,-4.7727101 -7.90812,-8.3520647 -2.18282,-1.9185201 -5.45703,-4.9308201 -7.27605,-6.6940001 -1.81901,-1.763181 -3.56735,-3.341661 -3.88521,-3.507738 -0.89938,-0.469918 -2.64308,-0.356735 -3.8296,0.248582 -1.41967,0.72426 -5.33689,4.520697 -7.75225,7.513222 -2.75137,3.408817 -4.88897,6.5988558 -8.86871,13.2351956 -4.16472,6.9448122 -6.02923,10.6993954 -7.12797,14.3536454 -0.44848,1.491588 -1.18289,3.93237 -1.63202,5.423958 -0.91432,3.036525 -2.28428,5.950053 -4.11976,8.761589 -1.327,2.032651 -9.68687,10.561556 -11.68929,11.925633 l -1.14109,0.777328 -1.23694,-0.487667 c -14.39466,-5.675095 -25.01396,-6.17329 -38.86967,-1.823537 -2.14878,0.674571 -4.16169,1.280964 -4.47313,1.347541 -0.55364,0.118351 -0.57068,0.0275 -0.76351,-4.071429 -0.21839,-4.641988 0.18672,-14.424155 0.82262,-19.863646 3.09621,-26.4853016 11.75163,-49.809904 26.41284,-71.177248 2.8666,-4.177795 2.24673,-3.9986 8.49378,-2.455418 5.90374,1.458378 10.03226,2.925863 18.71103,6.650852 4.1135,1.765541 8.88013,3.671366 10.59252,4.235164 6.73164,2.216383 14.60555,3.217609 20.89586,2.657068 7.236,-0.644816 12.39829,-2.232216 27.0553,-8.319476 13.27185,-5.511988 19.55288,-7.078932 28.44271,-7.095665 9.77979,-0.01841 16.51691,1.768965 32.87491,8.721794 12.19436,5.183108 19.08043,6.916322 27.45009,6.909149 8.93607,-0.0076 15.12009,-1.646005 29.897917,-7.920948 13.898775,-5.901676 20.498278,-7.544175 30.294793,-7.539852 6.629824,0.0029 10.785952,0.657789 17.67848,2.785499 l 2.597204,0.801756 2.463958,3.757166 c 10.368784,15.810898 18.88207,36.417211 22.211825,53.7634102 1.9952495,10.3941898 3.3041433,25.1792648 2.9513214,33.3374988 -0.2273035,5.256204 -0.6383867,11.895296 -0.8232246,13.295312 -0.1243012,0.94167 -0.2425965,1.12204 -0.7275513,1.10948 -0.3185054,-0.0083 -3.2579995,-0.940528 -6.5322185,-2.07173 z m -9.833002,-55.2946257 c 0.0731,-0.5169667 -1.145249,-1.8586264 -6.879167,-7.5752723 -3.832437,-3.820871 -7.622884,-7.373728 -8.423249,-7.89524 -2.855436,-1.860576 -6.195695,-2.135516 -14.730519,-1.212485 l -3.221143,0.348364 -1.326172,-1.41255 -1.326171,-1.412549 -1.715135,0.17572 -1.715108,0.175718 -1.66841,-1.923402 c -3.204157,-3.693866 -6.647133,-6.918973 -8.345528,-7.817434 -2.795016,-1.478582 -5.094105,-1.911903 -10.113409,-1.906127 -5.559055,0.0064 -13.224881,0.425931 -14.139975,0.773848 -0.885097,0.336515 -0.920128,1.181674 -0.07201,1.737381 0.843233,0.552508 3.958786,1.261356 10.483994,2.385311 8.110773,1.397066 11.267813,2.148774 13.438275,3.199717 1.768168,0.856152 2.098876,1.154298 3.968742,3.577971 2.982172,3.865404 3.172143,4.23251 2.744444,5.303893 -0.192379,0.481912 -0.44667,1.68988 -0.565124,2.684375 -0.161898,1.35922 -0.376952,1.983311 -0.866219,2.513542 -0.846587,0.917458 -1.033119,1.491506 -0.73742,2.269249 0.569462,1.4978245 2.986987,2.8464798 5.762387,3.2146501 1.64502,0.2182204 4.098502,-0.2800429 4.71088,-0.9567068 0.444844,-0.4915667 0.446299,-0.6137857 0.02794,-2.3471133 -0.54147,-2.243399 -0.327105,-2.970395 1.08884,-3.692755 1.888543,-0.96347 10.208736,-1.457037 13.342885,-0.791522 2.158365,0.458321 4.122393,1.578533 8.221742,4.689392 4.385284,3.3278448 6.240622,4.5470951 8.790755,5.7768969 2.131166,1.0277607 3.129995,1.0636064 3.263875,0.1171284 z M 13.445718,-27.738314 c -0.185737,-0.347054 -0.273896,-15.073367 -0.273896,-45.754016 0,-40.77653 0.04104,-45.28328 0.415766,-45.65802 0.368856,-0.36884 2.228691,-0.41577 16.477272,-0.41577 9.299866,0 17.005327,0.11384 18.303479,0.27042 4.93776,0.59556 8.12202,2.03383 11.110965,5.01861 3.090837,3.08653 4.718051,6.71488 5.281454,11.77659 0.343694,3.087659 0.343694,20.19568 0,23.283336 -0.902202,8.105452 -5.194723,13.704088 -12.29831,16.040478 -1.823482,0.599749 -2.087853,0.611346 -17.122643,0.751006 -14.195108,0.131858 -15.303818,0.175112 -15.742709,0.61418 -0.441669,0.441828 -0.476912,1.560256 -0.545941,17.31932 -0.05654,12.909486 -0.149305,16.894968 -0.396875,17.052263 -0.177695,0.112901 -1.3607,0.207098 -2.628874,0.209325 -2.011283,0.0035 -2.340795,-0.06132 -2.579688,-0.507722 z m 37.237989,-40.996411 c 3.358912,-1.241774 5.880947,-3.77767 7.135893,-7.175147 1.04513,-2.829404 1.175543,-4.832901 1.059127,-16.271875 -0.09499,-9.333073 -0.175022,-11.067593 -0.573114,-12.421013 -0.669528,-2.27613 -1.616287,-4.00358 -3.012044,-5.49577 -1.439783,-1.53923 -2.88925,-2.44002 -5.155697,-3.2041 -1.564852,-0.52754 -2.282428,-0.55889 -14.873341,-0.64979 -7.276042,-0.0525 -13.74492,-0.0186 -14.375289,0.0753 -2.00758,0.29913 -1.915213,-0.88082 -1.835018,23.441105 l 0.07072,21.452215 0.640133,0.518295 c 0.621109,0.50287 1.066033,0.515713 14.948959,0.431551 14.209528,-0.08614 14.320362,-0.091 15.969668,-0.700741 z m 35.255599,40.99222 c -0.337185,-0.63006 -0.25699,-91.132715 0.08107,-91.470855 0.121206,-0.12126 9.971591,-0.25227 21.889724,-0.29114 25.10829,-0.0819 22.73673,-0.36706 22.73673,2.7339 0,3.07477 2.13598,2.76073 -18.77751,2.76073 -18.059584,0 -19.388268,0.0585 -19.90836,0.87645 -0.109881,0.17279 -0.201612,8.18749 -0.203835,17.810424 -0.0037,15.952842 0.03453,17.52828 0.433361,17.859374 0.356791,0.296219 3.537665,0.387498 17.264064,0.495416 l 16.82665,0.132292 0.0767,2.49143 c 0.0559,1.814822 -0.0161,2.550226 -0.26458,2.707929 -0.18767,0.119073 -7.72639,0.218321 -16.75268,0.220548 -14.421059,0.0035 -16.482745,0.054 -16.999477,0.415928 l -0.588036,0.411879 v 18.490827 18.490826 l 0.588036,0.411879 c 0.518663,0.363292 2.780375,0.411877 19.172977,0.411877 21.36119,0 19.13274,-0.334761 19.13274,2.874124 0,1.329566 -0.11706,1.967635 -0.41577,2.266352 -0.37126,0.371247 -2.75037,0.415774 -22.21569,0.415774 -21.343219,0 -21.805711,-0.01082 -22.076062,-0.515964 z m 66.720854,0.198464 c -0.24447,-0.24448 -0.3175,-10.767282 -0.3175,-45.754016 0,-40.953143 0.041,-45.477543 0.41577,-45.852293 0.48818,-0.48816 4.05312,-0.59153 4.89328,-0.14188 0.50271,0.26904 0.51178,1.02432 0.51178,42.609944 v 42.336049 l 0.64942,0.64943 0.64945,0.649433 h 19.14139 c 14.53499,0 19.21782,0.07641 19.45891,0.3175 0.19773,0.19772 0.3175,1.175925 0.3175,2.592917 0,1.416991 -0.11977,2.395196 -0.3175,2.592916 -0.46003,0.460026 -44.94247,0.460026 -45.4025,0 z m 62.45442,0.01275 c -0.26138,-0.26139 -0.33025,-9.834541 -0.33025,-45.908651 v -45.578398 l 0.54187,-0.28999 c 0.3837,-0.20535 5.96355,-0.25868 19.11614,-0.1827 19.87955,0.11483 19.93191,0.11819 23.44349,1.50233 4.35742,1.71753 7.83979,5.43375 9.4719,10.10801 1.37432,3.9359 1.39785,4.51608 1.39816,34.484356 0,29.59066 -0.0424,30.724283 -1.29489,34.33638 -1.95244,5.630722 -6.06013,9.47951 -11.85133,11.104385 -2.02107,0.567063 -2.45906,0.580895 -21.11436,0.666792 -14.96753,0.06892 -19.12128,0.01693 -19.38073,-0.242525 z m 38.0097,-5.658892 c 4.75393,-1.120579 7.88398,-4.367879 9.21893,-9.564269 0.42709,-1.662512 0.463,-4.038965 0.463,-30.641871 0,-26.745287 -0.034,-28.964467 -0.46747,-30.559367 -1.39597,-5.13583 -4.03479,-7.96385 -8.80425,-9.43552 -1.45206,-0.44807 -2.76839,-0.48637 -16.71394,-0.48637 -14.17907,0 -15.16766,0.0299 -15.61042,0.47245 -0.44899,0.44877 -0.47611,2.44752 -0.54139,39.895385 l -0.0687,39.422947 0.65199,0.652002 0.65201,0.652002 14.76253,-0.0039 c 12.23188,-0.0033 15.05316,-0.07241 16.45772,-0.403489 z"
         id="path6965"
         inkscape:connector-curvature="0" />
    </g>
  </g>
</svg>
